<svg xmlns:dc="http://purl.org/dc/elements/1.1/" xmlns:cc="http://creativecommons.org/ns#" xmlns:rdf="http://www.w3.org/1999/02/22-rdf-syntax-ns#" xmlns:svg="http://www.w3.org/2000/svg" xmlns="http://www.w3.org/2000/svg" xmlns:sodipodi="http://sodipodi.sourceforge.net/DTD/sodipodi-0.dtd" xmlns:inkscape="http://www.inkscape.org/namespaces/inkscape" width="100" height="100" viewBox="0 0 80 80" version="1.1" id="svg2" inkscape:version="0.48.2 r9819" sodipodi:docname="blank.svg">
  <metadata id="metadata10">
    <rdf:RDF>
      <cc:Work rdf:about="">
        <dc:format>image/svg+xml</dc:format>
        <dc:type rdf:resource="http://purl.org/dc/dcmitype/StillImage"/>
        <dc:title/>
      </cc:Work>
    </rdf:RDF>
  </metadata>
  <defs id="defs8">
    <inkscape:path-effect is_visible="true" id="path-effect5043" effect="spiro"/>
    <inkscape:path-effect is_visible="true" id="path-effect5065" effect="spiro"/>
  </defs>
  <sodipodi:namedview pagecolor="#ffffff" bordercolor="#666666" borderopacity="1" objecttolerance="10" gridtolerance="10" guidetolerance="10" inkscape:pageopacity="0" inkscape:pageshadow="2" inkscape:window-width="1366" inkscape:window-height="706" id="namedview6" showgrid="true" inkscape:zoom="6.2140036" inkscape:cx="55.654281" inkscape:cy="31.71464" inkscape:window-x="-8" inkscape:window-y="-8" inkscape:window-maximized="1" inkscape:current-layer="svg2" inkscape:snap-grids="false">
    <inkscape:grid type="xygrid" id="grid3807"/>
  </sodipodi:namedview>
  <path inkscape:connector-curvature="0" id="path2986" d="m 35.809328,2.2515291 c 0.45956,-0.9109214 0.48218,-1.43407707 0.9784,-0.2890732 0.18715,-1.57751607 0.31034,0.1436222 0.45029,0.6170601 -0.35544,0.5928264 -0.0918,2.4184662 1.13961,1.284152 0.37364,1.1390317 -1.17584,2.0573882 0.47809,1.7233208 -1.50748,1.9175558 0.27509,0.7355834 0.6115,0.111182 1.19358,-0.8863873 -1.03012,1.5434273 -0.2446,1.6024104 -0.3977,0.9088361 -0.54212,2.7553438 0.82274,1.1507331 0.81897,-0.5554769 -0.32526,1.009233 0.21681,1.271645 0.0231,0.9423057 -1.49905,3.6962427 0.36134,2.3904117 0.78089,-1.725422 -0.084,3.545782 0.74492,1.952634 -1.00285,-0.292185 1.53533,-2.607587 0.29237,-0.587006 -0.11398,0.507998 1.08889,3.04402 0.76855,1.397233 0.77402,0.868495 1.73829,-1.575566 0.68464,0.572599 0.31557,0.455495 -0.43004,0.880908 -0.0556,1.967921 -0.75732,0.317773 -1.43277,2.441249 -0.0334,0.811629 -0.17038,1.17818 -0.92936,3.283999 -0.58927,3.168686 1.48937,-0.0021 1.14123,-2.60451 2.21391,-1.839715 1.53367,-1.030104 0.73651,-0.228915 1.29527,0.377672 0.99976,-0.2856 -2.05508,3.662622 0.27101,1.995717 0.22581,0.860235 -0.84776,2.779191 0.81163,1.534312 -0.17607,1.348096 -3.87919,2.603212 -1.21189,2.568303 0.82746,-1.369167 1.58908,-1.592495 0.85472,0.04586 0.0106,1.471773 -1.7881,3.16148 -0.48781,4.179053 0.38735,-0.333984 1.39349,-2.780286 1.36753,-0.744919 0.22757,-0.891331 1.8928,-1.719542 0.65598,-0.255719 1.04559,0.870696 -0.92982,3.417479 -2.30147,4.892008 -0.71511,-0.765307 -2.34963,-0.14957 -0.23626,0.04308 2.34436,-0.178855 -1.90118,1.433664 0.59621,0.879727 1.07071,-1.449854 2.39998,0.09875 2.95605,-0.478082 0.26185,0.754088 2.85769,-0.967323 3.35492,-0.222364 -0.88583,0.731278 -1.37251,3.735929 -2.95744,4.169324 1.14014,0.417942 0.0254,1.962177 0.96919,2.556318 0.15251,1.295989 -1.43573,1.994624 -0.27923,2.757546 0.59802,0.488066 0.4916,5.559489 1.85679,3.076294 0.54223,0.556349 2.93758,-2.276781 1.97505,0.520211 -0.53013,2.211881 -2.10503,1.454924 -2.59418,3.739362 -1.66343,1.546276 0.18018,2.348949 1.06317,0.503099 1.70227,0.835918 -1.6976,2.063745 -0.14453,2.824022 -1.79546,-0.180457 1.67314,1.213332 1.42313,0.562859 1.31739,-0.765547 1.88322,1.696811 -0.0556,1.949854 -0.84923,0.549563 -2.40822,1.487406 -0.0667,1.867858 -1.07392,-0.667402 1.19586,-0.879538 1.0319,-1.041124 1.06787,-0.428671 1.3198,1.128804 2.28827,1.652625 -0.0299,2.37041 -1.70397,2.68808 -2.09995,4.477854 -0.39577,1.034549 -3.70949,1.248722 -1.78864,1.573225 1.01183,-0.525332 -1.04571,1.692433 0.20152,0.775495 0.93377,0.745845 -0.12584,-1.43115 1.4134,-0.714344 0.6789,-0.283525 1.16457,-0.700524 2.03637,-0.368117 2.07957,-1.68705 -0.29317,2.318716 1.91683,1.440475 0.89069,0.77777 -2.17994,-0.669213 -1.77543,1.120706 -1.72215,0.532963 0.66558,0.703603 -0.83386,1.400893 -0.47947,1.015408 -3.74228,1.296302 -3.96364,2.156931 -0.1067,0.296462 -2.78205,-0.539572 -3.04083,1.54543 -0.49406,-0.803319 -3.01516,-0.723936 -2.54606,0.111182 -1.03845,-1.14497 -0.0396,1.633465 -0.8561,-0.211246 -0.92479,1.319972 0.16521,-1.481517 -0.97841,0.211246 0.65237,0.439903 0.0541,0.937769 -0.32242,0.655973 -0.66627,-1.219669 -0.34786,2.053116 -0.75604,0.03336 -0.95508,0.898935 -2.35092,0.631872 -2.14303,0.101454 -0.48488,0.163736 -1.18513,-1.602137 -1.20355,0.209856 -2.22956,0.05411 1.01215,4.906857 -2.29174,3.546705 -2.82985,-0.380031 1.00504,-5.663224 -2.41126,-6.081655 0.28945,-1.884668 -2.16156,-0.616223 -0.26683,-0.422491 -1.0844,0.158059 -1.48278,3.104963 -1.64202,1.492444 -1.12706,1.250164 -2.2259,0.218764 -0.89293,-1.036598 -1.72397,0.351475 -1.25773,0.511679 -2.89074,0.1223 0.85529,1.187042 0.58932,2.656879 -0.0111,1.134056 -0.851254,1.747302 -2.000434,-0.04083 -3.802419,1.067347 -1.203343,0.251868 -0.749339,-2.766765 -0.98952,-0.856101 -1.495304,1.002119 0.69017,-1.803089 -1.067347,-0.567028 -0.85034,-0.85956 -1.29373,0.839253 -1.923448,-0.578146 -1.149945,0.551048 -3.00175,-0.16686 -2.830971,-1.246629 1.578583,-0.39685 -2.281027,-1.00847 -0.104234,-0.979791 2.527445,-0.04404 -2.616202,-1.313967 0.282125,-1.228561 1.31428,0.290597 -2.963662,-2.958061 -0.0042,-2.03741 -1.097702,-1.360098 1.937876,-2.071189 2.112458,-0.411373 1.009753,0.01331 2.350038,1.053197 2.490477,-0.31131 -0.619927,-0.166438 -4.603051,-0.672751 -2.312586,-1.645493 -1.451724,-0.276473 -1.044139,-1.486178 0.255937,-1.142559 0.4344,-0.414644 -0.794709,-0.402811 -2.22e-4,-1.047726 -1.786849,0.739872 -0.388556,-1.023307 -1.356421,-0.67821 -2.128679,-1.280506 1.021517,-0.901563 -0.844983,-2.187506 -1.233305,-1.639083 1.447889,-0.333225 0.189009,-1.67051 0.203958,-1.093747 2.470027,1.193376 1.134057,-0.700446 2.257935,0.167875 -0.806063,-0.621393 0.544792,-0.533674 -1.707758,0.0079 -2.965523,-3.417215 -2.35011,-3.864964 1.201375,0.90488 3.775484,3.041602 6.208125,2.197235 -1.27268,0.441949 -0.959114,-1.802991 -1.901212,-0.466965 -5.56e-4,-0.781941 -0.03232,-1.171656 -1.367539,-1.367538 1.342147,-1.177852 -1.578015,0.251227 -0.567028,-1.156293 -1.088117,0.934965 -3.585732,-2.790204 -0.933929,-1.367538 -1.407646,-2.956892 2.70368,1.311552 2.090222,-1.011757 1.258051,0.63546 2.134031,1.297028 1.334184,-0.311309 0.03493,-1.080333 3.13603,0.835767 1.168279,-0.736059 -1.493814,-0.804216 0.738475,-1.540588 -1.251666,-1.698827 -0.865944,-0.403287 0.837945,-1.766118 -1.006197,-0.711564 -0.112703,-1.224019 -2.45827,-2.274591 -2.379295,-4.536226 0.640889,0.186351 1.830277,2.07779 1.412012,0.422492 1.210292,0.770116 2.049457,2.46063 3.557823,1.311947 -2.149755,-1.069762 -1.294635,-2.858356 -0.825526,-2.943543 -0.973015,-1.561585 1.334688,0.18491 1.370318,-0.947826 1.541624,0.990798 -0.813278,-1.909599 0.244601,-2.47241 -0.425814,-1.324679 1.88236,0.535454 0.544791,-1.152123 1.659401,-1.615138 -2.271484,-0.766543 -1.933177,-2.760093 -1.058355,-1.332212 -2.221769,-4.795676 0.03752,-2.262554 1.395136,1.369718 2.959809,0.939955 3.490941,2.353411 2.545039,0.770717 -1.744547,-1.920032 -1.039378,-2.345072 -1.783649,-0.734728 -2.162712,-3.745561 -1.588512,-3.399389 0.63322,1.007006 0.754924,0.275173 1.249407,0.542012 1.244475,0.189444 -1.679982,-3.818391 0.05003,-3.669006 0.805413,1.739535 0.825923,-2.108309 -0.06254,-2.575253 0.817043,-0.800244 0.920501,-1.587386 0.129249,-2.739246 0.928862,1.237365 2.701193,0.735263 1.223002,-0.689328 -0.144756,-2.097406 -0.100068,-2.492262 0.810591,-0.54566 0.99218,1.616726 3.24635,1.554536 1.57982,-0.399387 0.25547,-1.096765 -0.0999,-2.13474 -0.7338,-3.58006 0.79334,-0.226926 1.52587,-0.0248 2.13469,1.278593 1.07296,-0.818333 -0.83416,-2.558379 -0.56146,-2.993575 -0.83431,-1.297178 1.55993,0.807022 0.44629,-1.151776 -0.80175,-1.2528077 -0.73216,-1.5788427 0.69332,-0.8578387 0.33328,-0.862493 -1.15005,-1.3623395 0.77832,-1.2341189 -0.12065,-1.5284878 1.55453,0.9478509 0.31461,-0.9836126 -0.35917,-0.8796675 2.53961,0.7313073 0.48329,-0.7468306 0.0222,-0.2219782 1.56864,-0.7721267 0.0471,-1.6606075 0.40982,-0.8199861 2.33422,-0.2474811 0.3669,-0.9116923 -0.14648,-0.8141852 1.87367,-0.3765641 0.83387,-1.6343753 z m 0.84498,0.7004466 c -0.0846,0.4926291 0.48739,-0.063177 0,0 z m -1.60102,1.6454934 c 0.7403,1.7040675 1.19928,-0.061267 0,0 z m 1.03399,0.333546 c -0.0562,1.1063764 1.12878,0.8035945 0,0 z m 1.22301,0.1223002 c -0.19214,0.3393652 0.39425,-0.0128 0,0 z m -0.43361,0.7782739 c -0.20331,0.3258222 0.38294,-0.00804 0,0 z m 0.4892,0.044473 c -0.23701,0.6317361 0.61319,0.047514 0,0 z m 0.62262,0.055591 c -0.0868,0.5569917 0.5469,-0.083813 0,0 z m -0.87834,1.3453021 c -0.22333,0.5839978 0.59024,-0.028713 0,0 z m 0.10006,0.5559099 c -0.19419,0.3366113 0.38298,-0.018182 0,0 z m -2.77955,0.6448551 c -0.39408,0.310045 0.40101,0.288385 0,0 z m 4.22492,0.04447 c -0.26269,0.406932 0.47993,0.141712 0,0 z m -0.54479,0.300191 c -0.0782,0.484179 0.48039,-0.088 0,0 z m -1.12294,0.455847 c -0.20439,0.325596 0.38385,0.0021 0,0 z m -3.62453,0.277955 c -0.83387,0.29838 0.95284,0.8313357 0,0 z m 3.72459,0.166773 c -0.17902,0.3412517 0.39297,-0.02605 0,0 z m -2.00127,0.3668997 c -0.19388,0.517367 0.51822,-0.04554 0,0 z m -1.11182,1.167411 c 0.20748,0.499228 0.67649,-0.230394 0,0 z m 1.03399,0.55591 c -0.0216,0.701711 0.6027,-0.252915 0,0 z m -2.11246,0.144537 c -0.18406,0.575767 0.58554,-0.05121 0,0 z m 6.21507,0.600382 c -0.38181,0.504034 0.57538,0.14425 0,0 z m -0.57814,0.733801 c 1.12518,0.685213 -0.26862,-1.419282 0,0 z m 2.00127,-0.466964 c -0.19535,0.336297 0.38386,-0.0079 0,0 z m -0.11118,0.355782 c -0.21213,0.586194 0.58122,-0.03265 0,0 z m -9.56165,0.100064 c 0.0967,1.549247 1.23446,0.966887 0,0 z m 9.25034,0.222364 0.0417,0.04169 -0.0417,-0.04169 z m 0.23349,0.31131 0.0417,0.05003 -0.0417,-0.05003 z m -7.27131,0.211249 c -0.23422,1.425302 1.77313,0.271399 0,0 z m 8.16076,1.47872 c 0.94934,-1.189388 0.36292,-1.46405 0,0 z m -7.30466,-0.578146 c 0.25365,1.256731 1.69261,0.267917 0,0 z m 6.11501,2.023512 c -0.20857,0.748807 0.60194,-0.06637 0,0 z m 0.63374,0.06671 c -0.0128,0.394257 0.33937,-0.192138 0,0 z m -4.89201,0.189009 c 0.0294,0.560062 0.55133,-0.248471 0,0 z m 4.65853,0.289074 c -0.095,0.479478 0.48614,-0.07594 0,0 z m -8.51654,0.222364 c 0.048,0.634063 0.58747,-0.314488 0,0 z m -3.335461,1.934566 c 0.758011,0.29106 0.346188,-0.750856 0,0 z m 0.644851,-0.133418 c -0.135244,0.75237 0.68795,-0.09777 0,0 z m 7.0823,0.1223 c -0.24679,0.432515 0.47882,0.11007 0,0 z m -5.99271,0.756038 c -0.19885,0.667207 0.64321,-0.06392 0,0 z m -2.501597,0.3669 c 1.431837,0.342028 -0.04619,-0.92694 0,0 z m 12.619157,-0.133419 c -0.5861,0.443398 0.55912,0.421114 0,0 z m -2.11246,0.111182 c -0.0554,0.485159 0.48241,-0.08621 0,0 z m 2.17917,0.466964 c 0.29367,0.953034 1.10662,-0.309853 0,0 z m -12.363439,0.07783 c -0.05679,0.622941 0.552048,-0.185137 0,0 z m 7.137879,0.433609 c 0.7722,0.560515 0.41881,-1.334837 0,0 z m -3.06862,-0.222364 c -0.44133,0.539302 0.59706,0.166041 0,0 z m 0.84498,1.223002 c -0.48319,0.565164 1.79185,0.25731 0,0 z m 11.70747,0.01112 c -0.54752,0.324297 0.47394,0.327518 0,0 z m -9.67283,0.978402 c -0.0878,0.558224 0.57018,-0.06815 0,0 z m -1.7678,1.801148 c -0.34237,0.550196 0.72775,0.151273 0,0 z m 11.02925,0.644856 c -0.0554,0.485159 0.48241,-0.08622 0,0 z m -0.84498,0.433609 c -0.84803,1.054918 0.88938,0.147106 0,0 z m -0.72268,0.222364 c -0.02,0.759097 0.66621,-0.24888 0,0 z m -14.887269,0.789393 c -0.520442,1.665878 1.164564,0.348079 0.177891,0.07783 l -0.177891,-0.07783 z m -0.578147,0.1223 0.04169,0.04169 -0.04169,-0.04169 z m 1.323066,1.156292 c 0.472586,0.164759 0.01183,-0.812643 0,0 z m 0.322428,-0.511437 c 0.247712,1.34374 1.334522,0.993618 0,0 z m 0.400252,1.278593 c 1.33052,0.757961 1.47248,-0.147055 0,0 z m 5.09214,3.791306 c -0.30857,0.665514 0.69851,0.278933 0,0 z m 5.53686,-0.03336 c -0.20331,0.325823 0.38294,-0.008 0,0 z m 4.32498,1.30083 c -0.26753,1.880584 1.88591,1.729736 0.47808,0.200127 0.36457,-1.122671 -0.27112,-0.408624 -0.47808,-0.200127 z m 6.35961,0.06671 c -0.009,0.597718 0.52974,-0.216345 0,0 z m 0.52256,1.300829 c -0.19214,0.339365 0.39425,-0.0128 0,0 z m -5.88153,0.422492 c -0.41322,0.256234 0.37834,0.311682 0,0 z m 2.446,0.100064 c 0.20326,1.757216 1.51007,0.255632 0,0 z m -21.102339,0.544791 c -0.0079,0.383861 0.336296,-0.19535 0,0 z m 17.655699,0.689329 c -0.0811,0.482204 0.4822,-0.08111 0,0 z m 0.0222,0.355782 c -0.19535,0.336297 0.38386,-0.0079 0,0 z m 0.45585,0.200128 0.0417,0.04169 -0.0417,-0.04169 z m -17.577879,0.822746 c 0.132576,2.031962 1.618927,-0.155035 0.211245,0.211246 l 0.02224,-0.289073 -0.233482,0.07783 z m 13.341839,0.633738 c -1.70995,1.253322 2.328,0.733891 0.51144,0.389137 l -0.22654,-0.244601 -0.2849,-0.144536 z m 2.11246,0.300191 c 0.28267,0.50041 0.58081,-0.372544 0,0 z m 2.25699,-0.08895 c -0.0425,0.623682 0.54479,-0.194014 0,0 z m -22.792306,2.468241 c 0.882559,0.946366 0.675474,-1.036909 0,0 z m 27.328536,1.323065 0.0417,0.04169 -0.0417,-0.04169 z m -0.87834,0.378019 c -0.96702,2.107511 1.84645,-1.390253 0,0 z m -1.8901,0.389137 c -0.19283,0.82307 1.60961,0.03095 0,0 z m 1.53432,0.667092 c -0.0125,0.395153 0.34971,-0.184389 0,0 z m -15.88791,1.578784 0.0417,0.04169 -0.0417,-0.04169 z m 8.56101,0.833865 c 0.75152,1.009311 0.46558,-1.183908 0,0 z m -9.77289,0.03336 c 0.12954,0.482949 0.41512,-0.261063 0,0 z m 2.02351,0.06671 c -0.78777,0.785526 0.93411,0.452905 0,0 z m 11.3628,0.411373 c -2.23783,0.295454 1.28485,0.496091 0,0 z m 0.4892,-0.01112 0.0417,0.04169 -0.0417,-0.04169 z m 0.43361,-0.01112 0.0417,0.04169 -0.0417,-0.04169 z m -16.432699,1.078465 c -0.512437,0.618738 1.038719,0.27093 0,0 z m 14.475899,0.86722 c 0.76433,0.879166 0.72594,-1.53794 0,0 z M 22.901099,49.948603 c -0.05093,0.530604 0.495686,-0.185769 0,0 z m 19.690329,0.500318 c 0.86906,1.13017 1.78637,-0.587498 0,0 z m -10.57341,0.722683 c -0.53133,0.598711 0.74181,0.223636 0,0 z m -8.583245,0.778274 c -0.805331,0.95053 1.042534,-0.05915 0,0 z m 0.489201,0.43361 c -0.01659,0.532834 0.587729,-0.235728 0,0 z m 16.532764,0.266837 c -0.005,0.606892 0.54477,-0.215272 0,0 z m -16.477173,4.56958 c -0.662854,0.457878 0.598988,0.435217 0,0 z m 0.4892,0.700446 c 1.210704,-0.86068 0.42462,-1.341815 0,0 z m 28.084573,-0.544792 c -0.26747,0.695974 0.57919,0.100601 0,0 z m -25.916524,0.255719 c -0.439275,0.505639 0.597362,0.19539 0,0 z m 1.134056,-0.02224 c -0.08622,0.482408 0.48516,-0.05545 0,0 z m 24.226558,0.466964 0.0417,0.04169 -0.0417,-0.04169 z m -10.00638,0.466964 c -0.0555,0.48516 0.48241,-0.08622 0,0 z m -15.676662,0.233483 c -0.742561,0.399104 0.413394,0.458027 0,0 z m 18.467332,-0.04447 c 0.002,0.383849 0.32559,-0.204386 0,0 z m 6.80433,0.911692 c 0.15933,0.55787 1.45713,-0.618693 0.33355,-0.18484 l -0.33355,0.18484 z m -1.15629,0.544792 c -0.0802,0.555827 0.54155,-0.108575 0,0 z m -9.51718,2.023512 c -0.854,1.563434 1.00231,-0.406108 0,0 z m -0.66709,0.31131 c -0.0259,0.684109 0.59429,-0.256519 0,0 z m 1.15629,0 c 0.18117,0.582193 0.69226,-0.294112 0,0 z m -18.322788,0.05559 c -0.333676,1.216046 2.30697,1.202244 0,0 z m 8.572128,1.378656 c -0.4076,0.278072 0.38674,0.290782 0,0 z m 12.89711,0.67821 c -0.33317,0.426865 0.50508,0.119284 0,0 z m -1.47872,0.333546 c -0.38597,2.892862 3.98489,-0.450517 0.76716,0.08895 l -0.37524,-0.07783 -0.39192,-0.01112 z m -8.95015,1.145175 c -0.52227,0.383283 0.50692,0.414147 0,0 z" style="fill:#000000;stroke:#000000;stroke-width:0.01042331"/>
</svg>